<mxfile host="app.diagrams.net" modified="2021-07-02T09:53:20.504Z" agent="5.0 (Windows NT 10.0; Win64; x64) AppleWebKit/537.36 (KHTML, like Gecko) Chrome/90.0.4430.212 Safari/537.36 OPR/76.0.4017.208" etag="FDAryaa2YdTXeSDfeY_Z" version="14.8.1" type="github">
  <diagram id="uloBPjqb92WjDAkiwb_R" name="Page-1">
    <mxGraphModel dx="2471" dy="1902" grid="1" gridSize="10" guides="1" tooltips="1" connect="1" arrows="1" fold="1" page="1" pageScale="1" pageWidth="850" pageHeight="1100" math="0" shadow="0">
      <root>
        <mxCell id="0" />
        <mxCell id="1" parent="0" />
        <mxCell id="fB88yQwokx1iAzmXtBpc-4" style="edgeStyle=orthogonalEdgeStyle;rounded=0;orthogonalLoop=1;jettySize=auto;html=1;entryX=0.5;entryY=0;entryDx=0;entryDy=0;entryPerimeter=0;" edge="1" parent="1" source="fB88yQwokx1iAzmXtBpc-2" target="fB88yQwokx1iAzmXtBpc-8">
          <mxGeometry relative="1" as="geometry" />
        </mxCell>
        <mxCell id="fB88yQwokx1iAzmXtBpc-2" value="Application&lt;br&gt;Start" style="strokeWidth=2;html=1;shape=mxgraph.flowchart.start_2;whiteSpace=wrap;" vertex="1" parent="1">
          <mxGeometry x="330" y="-80" width="100" height="100" as="geometry" />
        </mxCell>
        <mxCell id="fB88yQwokx1iAzmXtBpc-97" style="edgeStyle=orthogonalEdgeStyle;rounded=0;orthogonalLoop=1;jettySize=auto;html=1;entryX=0.5;entryY=0;entryDx=0;entryDy=0;entryPerimeter=0;" edge="1" parent="1" source="fB88yQwokx1iAzmXtBpc-3" target="fB88yQwokx1iAzmXtBpc-82">
          <mxGeometry relative="1" as="geometry" />
        </mxCell>
        <mxCell id="fB88yQwokx1iAzmXtBpc-123" style="edgeStyle=orthogonalEdgeStyle;rounded=0;orthogonalLoop=1;jettySize=auto;html=1;entryX=0.5;entryY=0;entryDx=0;entryDy=0;entryPerimeter=0;" edge="1" parent="1" source="fB88yQwokx1iAzmXtBpc-3" target="fB88yQwokx1iAzmXtBpc-107">
          <mxGeometry relative="1" as="geometry" />
        </mxCell>
        <mxCell id="fB88yQwokx1iAzmXtBpc-3" value="Route is?" style="strokeWidth=2;html=1;shape=mxgraph.flowchart.decision;whiteSpace=wrap;" vertex="1" parent="1">
          <mxGeometry x="330" y="230" width="100" height="100" as="geometry" />
        </mxCell>
        <mxCell id="fB88yQwokx1iAzmXtBpc-79" value="" style="edgeStyle=orthogonalEdgeStyle;rounded=0;orthogonalLoop=1;jettySize=auto;html=1;" edge="1" parent="1" source="fB88yQwokx1iAzmXtBpc-8" target="fB88yQwokx1iAzmXtBpc-3">
          <mxGeometry relative="1" as="geometry" />
        </mxCell>
        <mxCell id="fB88yQwokx1iAzmXtBpc-8" value="Show AppComponent" style="strokeWidth=2;html=1;shape=mxgraph.flowchart.display;whiteSpace=wrap;" vertex="1" parent="1">
          <mxGeometry x="310" y="100" width="140" height="60" as="geometry" />
        </mxCell>
        <mxCell id="fB88yQwokx1iAzmXtBpc-80" value="/draw" style="text;html=1;align=center;verticalAlign=middle;resizable=0;points=[];autosize=1;strokeColor=none;" vertex="1" parent="1">
          <mxGeometry x="520" y="260" width="40" height="20" as="geometry" />
        </mxCell>
        <mxCell id="fB88yQwokx1iAzmXtBpc-98" style="edgeStyle=orthogonalEdgeStyle;rounded=0;orthogonalLoop=1;jettySize=auto;html=1;entryX=0.5;entryY=0;entryDx=0;entryDy=0;" edge="1" parent="1" source="fB88yQwokx1iAzmXtBpc-82" target="fB88yQwokx1iAzmXtBpc-85">
          <mxGeometry relative="1" as="geometry" />
        </mxCell>
        <mxCell id="fB88yQwokx1iAzmXtBpc-82" value="Show NumberDrawComponent" style="strokeWidth=2;html=1;shape=mxgraph.flowchart.display;whiteSpace=wrap;" vertex="1" parent="1">
          <mxGeometry x="630" y="340" width="180" height="60" as="geometry" />
        </mxCell>
        <mxCell id="fB88yQwokx1iAzmXtBpc-83" value="" style="edgeStyle=orthogonalEdgeStyle;rounded=0;orthogonalLoop=1;jettySize=auto;html=1;entryX=0;entryY=0.5;entryDx=0;entryDy=0;entryPerimeter=0;" edge="1" parent="1" source="fB88yQwokx1iAzmXtBpc-85" target="fB88yQwokx1iAzmXtBpc-89">
          <mxGeometry relative="1" as="geometry">
            <mxPoint x="1560" y="280" as="targetPoint" />
          </mxGeometry>
        </mxCell>
        <mxCell id="fB88yQwokx1iAzmXtBpc-99" value="" style="edgeStyle=orthogonalEdgeStyle;rounded=0;orthogonalLoop=1;jettySize=auto;html=1;" edge="1" parent="1" source="fB88yQwokx1iAzmXtBpc-85" target="fB88yQwokx1iAzmXtBpc-93">
          <mxGeometry relative="1" as="geometry" />
        </mxCell>
        <mxCell id="fB88yQwokx1iAzmXtBpc-101" style="edgeStyle=orthogonalEdgeStyle;rounded=0;orthogonalLoop=1;jettySize=auto;html=1;exitX=0.5;exitY=1;exitDx=0;exitDy=0;" edge="1" parent="1" source="fB88yQwokx1iAzmXtBpc-85" target="fB88yQwokx1iAzmXtBpc-90">
          <mxGeometry relative="1" as="geometry" />
        </mxCell>
        <mxCell id="fB88yQwokx1iAzmXtBpc-85" value="Status" style="rhombus;whiteSpace=wrap;html=1;strokeWidth=2;" vertex="1" parent="1">
          <mxGeometry x="680" y="500" width="80" height="80" as="geometry" />
        </mxCell>
        <mxCell id="fB88yQwokx1iAzmXtBpc-86" value="loaded" style="text;html=1;align=center;verticalAlign=middle;resizable=0;points=[];autosize=1;strokeColor=none;" vertex="1" parent="1">
          <mxGeometry x="790" y="520" width="50" height="20" as="geometry" />
        </mxCell>
        <mxCell id="fB88yQwokx1iAzmXtBpc-87" value="Drawing" style="text;html=1;align=center;verticalAlign=middle;resizable=0;points=[];autosize=1;strokeColor=none;" vertex="1" parent="1">
          <mxGeometry x="730" y="660" width="60" height="20" as="geometry" />
        </mxCell>
        <mxCell id="fB88yQwokx1iAzmXtBpc-88" value="finished" style="text;html=1;align=center;verticalAlign=middle;resizable=0;points=[];autosize=1;strokeColor=none;" vertex="1" parent="1">
          <mxGeometry x="610" y="505" width="60" height="20" as="geometry" />
        </mxCell>
        <mxCell id="fB88yQwokx1iAzmXtBpc-89" value="Show WelcomePromptComponent" style="strokeWidth=2;html=1;shape=mxgraph.flowchart.display;whiteSpace=wrap;" vertex="1" parent="1">
          <mxGeometry x="900" y="505" width="230" height="70" as="geometry" />
        </mxCell>
        <mxCell id="fB88yQwokx1iAzmXtBpc-90" value="Show DrawComponent" style="strokeWidth=2;html=1;shape=mxgraph.flowchart.display;whiteSpace=wrap;" vertex="1" parent="1">
          <mxGeometry x="630" y="820" width="180" height="60" as="geometry" />
        </mxCell>
        <mxCell id="fB88yQwokx1iAzmXtBpc-100" style="edgeStyle=orthogonalEdgeStyle;rounded=0;orthogonalLoop=1;jettySize=auto;html=1;" edge="1" parent="1" source="fB88yQwokx1iAzmXtBpc-93" target="fB88yQwokx1iAzmXtBpc-95">
          <mxGeometry relative="1" as="geometry" />
        </mxCell>
        <mxCell id="fB88yQwokx1iAzmXtBpc-93" value="Save drew numbers" style="whiteSpace=wrap;html=1;strokeWidth=2;" vertex="1" parent="1">
          <mxGeometry x="480" y="510" width="120" height="60" as="geometry" />
        </mxCell>
        <mxCell id="fB88yQwokx1iAzmXtBpc-102" style="edgeStyle=orthogonalEdgeStyle;rounded=0;orthogonalLoop=1;jettySize=auto;html=1;entryX=0;entryY=0.5;entryDx=0;entryDy=0;entryPerimeter=0;" edge="1" parent="1" source="fB88yQwokx1iAzmXtBpc-95" target="fB88yQwokx1iAzmXtBpc-90">
          <mxGeometry relative="1" as="geometry" />
        </mxCell>
        <mxCell id="fB88yQwokx1iAzmXtBpc-95" value="Show DrawEndedComponent" style="strokeWidth=2;html=1;shape=mxgraph.flowchart.display;whiteSpace=wrap;" vertex="1" parent="1">
          <mxGeometry x="450" y="690" width="180" height="60" as="geometry" />
        </mxCell>
        <mxCell id="fB88yQwokx1iAzmXtBpc-96" value="redraw" style="text;html=1;align=center;verticalAlign=middle;resizable=0;points=[];autosize=1;strokeColor=none;" vertex="1" parent="1">
          <mxGeometry x="540" y="820" width="50" height="20" as="geometry" />
        </mxCell>
        <mxCell id="fB88yQwokx1iAzmXtBpc-103" value="/history" style="text;html=1;align=center;verticalAlign=middle;resizable=0;points=[];autosize=1;strokeColor=none;" vertex="1" parent="1">
          <mxGeometry x="200" y="250" width="50" height="20" as="geometry" />
        </mxCell>
        <mxCell id="fB88yQwokx1iAzmXtBpc-125" style="edgeStyle=orthogonalEdgeStyle;rounded=0;orthogonalLoop=1;jettySize=auto;html=1;entryX=1;entryY=0.5;entryDx=0;entryDy=0;" edge="1" parent="1" source="fB88yQwokx1iAzmXtBpc-105" target="fB88yQwokx1iAzmXtBpc-112">
          <mxGeometry relative="1" as="geometry" />
        </mxCell>
        <mxCell id="fB88yQwokx1iAzmXtBpc-105" value="Request historic data" style="whiteSpace=wrap;html=1;strokeWidth=2;" vertex="1" parent="1">
          <mxGeometry x="-10" y="485" width="120" height="60" as="geometry" />
        </mxCell>
        <mxCell id="fB88yQwokx1iAzmXtBpc-124" style="edgeStyle=orthogonalEdgeStyle;rounded=0;orthogonalLoop=1;jettySize=auto;html=1;" edge="1" parent="1" source="fB88yQwokx1iAzmXtBpc-107" target="fB88yQwokx1iAzmXtBpc-105">
          <mxGeometry relative="1" as="geometry" />
        </mxCell>
        <mxCell id="fB88yQwokx1iAzmXtBpc-107" value="Show HistoryComponent" style="strokeWidth=2;html=1;shape=mxgraph.flowchart.display;whiteSpace=wrap;" vertex="1" parent="1">
          <mxGeometry x="-30" y="340" width="160" height="60" as="geometry" />
        </mxCell>
        <mxCell id="fB88yQwokx1iAzmXtBpc-108" value="Show Loader" style="strokeWidth=2;html=1;shape=mxgraph.flowchart.display;whiteSpace=wrap;" vertex="1" parent="1">
          <mxGeometry x="-250" y="340" width="160" height="60" as="geometry" />
        </mxCell>
        <mxCell id="fB88yQwokx1iAzmXtBpc-109" value="" style="edgeStyle=orthogonalEdgeStyle;rounded=0;orthogonalLoop=1;jettySize=auto;html=1;" edge="1" parent="1" source="fB88yQwokx1iAzmXtBpc-112" target="fB88yQwokx1iAzmXtBpc-108">
          <mxGeometry relative="1" as="geometry" />
        </mxCell>
        <mxCell id="fB88yQwokx1iAzmXtBpc-111" value="" style="edgeStyle=orthogonalEdgeStyle;rounded=0;orthogonalLoop=1;jettySize=auto;html=1;" edge="1" parent="1" source="fB88yQwokx1iAzmXtBpc-112" target="fB88yQwokx1iAzmXtBpc-119">
          <mxGeometry relative="1" as="geometry" />
        </mxCell>
        <mxCell id="fB88yQwokx1iAzmXtBpc-126" style="edgeStyle=orthogonalEdgeStyle;rounded=0;orthogonalLoop=1;jettySize=auto;html=1;exitX=0.5;exitY=1;exitDx=0;exitDy=0;entryX=0.563;entryY=0;entryDx=0;entryDy=0;entryPerimeter=0;" edge="1" parent="1" source="fB88yQwokx1iAzmXtBpc-112" target="fB88yQwokx1iAzmXtBpc-116">
          <mxGeometry relative="1" as="geometry" />
        </mxCell>
        <mxCell id="fB88yQwokx1iAzmXtBpc-112" value="Status" style="rhombus;whiteSpace=wrap;html=1;strokeWidth=2;" vertex="1" parent="1">
          <mxGeometry x="-210" y="475" width="80" height="80" as="geometry" />
        </mxCell>
        <mxCell id="fB88yQwokx1iAzmXtBpc-113" value="Loading" style="text;html=1;align=center;verticalAlign=middle;resizable=0;points=[];autosize=1;strokeColor=none;" vertex="1" parent="1">
          <mxGeometry x="-170" y="430" width="60" height="20" as="geometry" />
        </mxCell>
        <mxCell id="fB88yQwokx1iAzmXtBpc-114" value="Error" style="text;html=1;align=center;verticalAlign=middle;resizable=0;points=[];autosize=1;strokeColor=none;" vertex="1" parent="1">
          <mxGeometry x="-170" y="600" width="40" height="20" as="geometry" />
        </mxCell>
        <mxCell id="fB88yQwokx1iAzmXtBpc-127" style="edgeStyle=orthogonalEdgeStyle;rounded=0;orthogonalLoop=1;jettySize=auto;html=1;entryX=0.5;entryY=1;entryDx=0;entryDy=0;" edge="1" parent="1" source="fB88yQwokx1iAzmXtBpc-116" target="fB88yQwokx1iAzmXtBpc-105">
          <mxGeometry relative="1" as="geometry" />
        </mxCell>
        <mxCell id="fB88yQwokx1iAzmXtBpc-116" value="Show ErrorPrompt" style="strokeWidth=2;html=1;shape=mxgraph.flowchart.display;whiteSpace=wrap;" vertex="1" parent="1">
          <mxGeometry x="-260" y="660" width="160" height="60" as="geometry" />
        </mxCell>
        <mxCell id="fB88yQwokx1iAzmXtBpc-118" value="" style="edgeStyle=orthogonalEdgeStyle;rounded=0;orthogonalLoop=1;jettySize=auto;html=1;entryX=1;entryY=0.5;entryDx=0;entryDy=0;entryPerimeter=0;" edge="1" parent="1" source="fB88yQwokx1iAzmXtBpc-119" target="fB88yQwokx1iAzmXtBpc-121">
          <mxGeometry relative="1" as="geometry">
            <mxPoint x="-920" y="490" as="targetPoint" />
          </mxGeometry>
        </mxCell>
        <mxCell id="fB88yQwokx1iAzmXtBpc-119" value="Sort Incoming Data by date time" style="rounded=0;whiteSpace=wrap;html=1;" vertex="1" parent="1">
          <mxGeometry x="-410" y="485" width="120" height="60" as="geometry" />
        </mxCell>
        <mxCell id="fB88yQwokx1iAzmXtBpc-120" value="Success" style="text;html=1;align=center;verticalAlign=middle;resizable=0;points=[];autosize=1;strokeColor=none;" vertex="1" parent="1">
          <mxGeometry x="-280" y="490" width="60" height="20" as="geometry" />
        </mxCell>
        <mxCell id="fB88yQwokx1iAzmXtBpc-121" value="Show DrawHistoryTable&lt;br&gt;Component" style="strokeWidth=2;html=1;shape=mxgraph.flowchart.display;whiteSpace=wrap;" vertex="1" parent="1">
          <mxGeometry x="-660" y="485" width="160" height="60" as="geometry" />
        </mxCell>
        <mxCell id="fB88yQwokx1iAzmXtBpc-122" value="Retry" style="text;html=1;align=center;verticalAlign=middle;resizable=0;points=[];autosize=1;strokeColor=none;" vertex="1" parent="1">
          <mxGeometry x="10" y="640" width="40" height="20" as="geometry" />
        </mxCell>
      </root>
    </mxGraphModel>
  </diagram>
</mxfile>
